<svg
    width="24"
    height="24"
    viewBox="0 0 24 24"
    fill="none"
    xmlns="http://www.w3.org/2000/svg"
  >
    <path
      d="M10.0703 7.2842C10.0703 7.60092 10.0703 7.87677 10.0703 8.15262C10.0703 9.4029 10.0677 10.6544 10.0715 11.9047C10.0754 13.0528 10.8948 13.9123 11.9794 13.9149C13.0525 13.9161 13.8822 13.086 13.8886 11.9456C13.9026 9.20112 13.8873 6.45792 13.9039 3.71345C13.9064 3.32649 13.6451 3.35714 13.4298 3.32522C10.6399 2.91655 8.1662 3.62022 6.08372 5.53203C4.20388 7.25866 3.26077 9.43355 3.24675 11.9941C3.23401 14.5343 3.24293 17.0731 3.24293 19.6132C3.24293 19.7486 3.24293 19.884 3.24293 20.1394C3.05303 19.9325 2.93833 19.8214 2.84019 19.6975C-0.00824547 16.1012 -0.780574 12.0925 0.825258 7.79759C2.43746 3.48613 5.65422 0.945993 10.1901 0.161858C12.4408 -0.227655 14.6278 0.100558 16.7345 0.988137C16.9881 1.09541 17.099 1.22057 17.0977 1.51685C17.0862 5.00076 17.0951 8.48467 17.0875 11.9699C17.0811 14.6236 15.0802 16.8445 12.4994 17.0821C9.82429 17.3298 7.48691 15.5674 6.9733 12.9149C6.54635 10.7081 7.72141 8.37101 9.744 7.40808C9.83321 7.36593 9.92752 7.33784 10.0703 7.2842Z"
      fill="currentColor"></path>
    <path
      d="M6.87324 19.1727C7.04402 19.2761 7.14853 19.34 7.25431 19.4025C10.1792 21.156 13.1959 21.3348 16.1858 19.6848C19.1706 18.0373 20.6821 15.3976 20.7458 11.9814C20.7917 9.46932 20.7548 6.95473 20.7548 4.44269C20.7548 4.29199 20.7548 4.14257 20.7548 3.90503C20.8899 4.03529 20.9752 4.10042 21.0415 4.18216C23.8938 7.67501 24.7247 11.611 23.2706 15.8714C21.8062 20.165 18.7194 22.7907 14.2856 23.7472C11.8513 24.2721 9.47698 23.9618 7.18548 22.9835C6.95353 22.8852 6.86177 22.7715 6.86559 22.5072C6.88344 21.4229 6.87324 20.3387 6.87324 19.1727Z"
      fill="currentColor"></path>
  </svg>